<svg width="191" height="56" viewBox="0 0 191 56" fill="none" xmlns="http://www.w3.org/2000/svg">
<path d="M30.3191 11.8484C24.9074 11.3548 16.4168 12.3577 10.7053 21.6125C10.7053 21.6125 18.3577 16.7663 20.4543 22.3753C23.2593 18.1574 26.5696 14.626 30.3191 11.8484ZM46.5021 27.226C43.5791 30.7888 39.8603 33.9343 35.4214 36.5997C41.3266 38.592 36.2242 45.8612 36.2242 45.8612C45.9661 40.4362 47.0192 32.3683 46.5021 27.226Z" fill="#4062FF"/>
<path d="M49.0758 9.40064C50.084 10.3609 50.9883 11.3795 51.7887 12.4474C52.5088 8.80384 52.2538 6.38077 52.2538 6.38077C52.2538 6.38077 49.7062 6.13846 45.8694 6.82275C46.9933 7.58333 48.0676 8.44263 49.0758 9.40064Z" fill="#4062FF"/>
<path d="M28.9708 38.251L18.7166 28.507L20.3339 26.9702L30.5858 36.7141L28.9708 38.251Z" fill="#4062FF"/>
<path d="M38.4106 19.5372C37.0412 18.2359 37.5039 15.6872 39.4448 13.8452C41.3856 12.001 44.0655 11.5612 45.4349 12.8603C46.8044 14.1615 46.3416 16.7103 44.4007 18.5545C42.4599 20.3965 39.7777 20.8385 38.4106 19.5372ZM51.0945 15.234C50.1312 13.6747 48.9459 12.2051 47.5363 10.8657C46.1267 9.52629 44.5802 8.4 42.9369 7.48238C36.4084 9.25706 27.6794 13.7106 20.936 24.7199L25.9581 29.492C29.0252 26.4789 33.1406 24.5449 33.1406 24.5449C33.1406 24.5449 31.1053 28.4532 27.9344 31.3699L32.9564 36.142C44.5424 29.7343 49.2292 21.4397 51.0945 15.234Z" fill="#4062FF"/>
<path d="M54.2466 16.0461L54.2348 16.0888C53.6941 17.8859 52.9197 19.8917 51.8147 22.0029C53.942 29.3304 51.98 37.5061 45.919 43.2631C39.6219 49.249 30.5765 51.0304 22.6408 48.6096L26.6169 43.5167L14.1455 49.4173C24.8602 56.3971 39.6172 55.3651 49.1348 46.3211C57.7576 38.1298 59.46 25.8529 54.2466 16.0461ZM35.8134 6.80031C38.0352 5.75031 40.1461 5.01441 42.0397 4.50063L42.0846 4.48717C31.7641 -0.466678 18.8441 1.15319 10.2237 9.34454C0.703728 18.3907 -0.382382 32.4131 6.96303 42.5945L13.1751 30.7439L7.81539 34.5221C5.26775 26.9814 7.14248 18.3862 13.4396 12.4026C19.5005 6.64326 28.1044 4.77659 35.8134 6.80031Z" fill="#4062FF"/>
<path d="M17.2762 29.8756L7.10449 49.2849L27.5305 39.6195L17.2762 29.8756Z" fill="#4062FF"/>
<path d="M71.5912 11.5777H66.5479V8.07767H81.2717V11.5777H76.2473V23.6931H71.5912V11.5777Z" fill="#4062FF"/>
<path d="M90.1899 19.5469H87.6494V23.6931H83.0027V8.07767H90.5205C92.0056 8.07767 93.2971 8.311 94.3927 8.77767C95.4883 9.24433 96.3312 9.91517 96.9238 10.7879C97.5212 11.6562 97.821 12.6793 97.821 13.8572C97.821 14.9879 97.5401 15.9751 96.9805 16.8187C96.4256 17.6578 95.6323 18.3129 94.6005 18.7841L98.1421 23.6931H93.1649L90.1899 19.5469ZM93.1177 13.8572C93.1177 13.128 92.8745 12.5626 92.3905 12.161C91.9041 11.7616 91.1863 11.5597 90.2371 11.5597H87.6494V16.1277H90.2371C91.1863 16.1277 91.9041 15.9302 92.3905 15.5354C92.8745 15.1405 93.1177 14.5818 93.1177 13.8572Z" fill="#4062FF"/>
<path d="M111.386 20.6597H104.435L103.141 23.6931H98.4001L105.653 8.07767H110.234L117.516 23.6931H112.68L111.386 20.6597ZM110.026 17.402L107.911 12.4033L105.795 17.402H110.026Z" fill="#4062FF"/>
<path d="M135.494 8.07767L128.448 23.6931H123.877L116.851 8.07767H121.875L126.342 18.2456L130.894 8.07767H135.494Z" fill="#4062FF"/>
<path d="M149.999 20.2828V23.6931H136.805V8.07767H149.697V11.4879H141.405V14.1264H148.705V17.42H141.405V20.2828H149.999Z" fill="#4062FF"/>
<path d="M152.58 8.07767H157.227V20.1931H165.075V23.6931H152.58V8.07767Z" fill="#4062FF"/>
<path d="M76.2944 48.1302C74.5685 48.1302 73.0196 47.787 71.6478 47.0982C70.2807 46.4049 69.2064 45.4424 68.4272 44.2084C67.6457 42.97 67.2561 41.57 67.2561 40.0084C67.2561 38.4469 67.6457 37.0514 68.4272 35.8174C69.2064 34.5789 70.2807 33.6164 71.6478 32.9277C73.0196 32.2344 74.5685 31.8866 76.2944 31.8866C77.7914 31.8866 79.1419 32.1424 80.3461 32.6495C81.555 33.152 82.5585 33.8789 83.3589 34.8302L80.4028 37.3789C79.3379 36.1584 78.044 35.5482 76.5211 35.5482C75.6333 35.5482 74.84 35.7344 74.1411 36.1046C73.4469 36.477 72.9086 36.9998 72.5261 37.6751C72.1412 38.3527 71.95 39.1289 71.95 40.0084C71.95 40.8879 72.1412 41.6664 72.5261 42.3418C72.9086 43.0193 73.4469 43.5421 74.1411 43.9123C74.84 44.2847 75.6333 44.4687 76.5211 44.4687C78.044 44.4687 79.3379 43.8584 80.4028 42.6379L83.3589 45.1866C82.5585 46.1379 81.555 46.8693 80.3461 47.3764C79.1419 47.8789 77.7914 48.1302 76.2944 48.1302Z" fill="#4062FF"/>
<path d="M93.7123 48.1302C91.9746 48.1302 90.4115 47.7802 89.0279 47.0802C87.6419 46.3802 86.5535 45.4155 85.7601 44.1815C84.9715 42.943 84.5796 41.552 84.5796 40.0084C84.5796 38.4603 84.9715 37.0693 85.7601 35.8353C86.5535 34.6036 87.6419 33.6366 89.0279 32.9366C90.4115 32.2366 91.9746 31.8866 93.7123 31.8866C95.4501 31.8866 97.0108 32.2366 98.3968 32.9366C99.7804 33.6366 100.866 34.6036 101.655 35.8353C102.448 37.0693 102.845 38.4603 102.845 40.0084C102.845 41.552 102.448 42.943 101.655 44.1815C100.866 45.4155 99.7804 46.3802 98.3968 47.0802C97.0108 47.7802 95.4501 48.1302 93.7123 48.1302ZM93.7123 44.4687C94.5364 44.4687 95.2848 44.2847 95.9601 43.9123C96.633 43.5421 97.1643 43.0193 97.5562 42.3418C97.9458 41.6664 98.1418 40.8879 98.1418 40.0084C98.1418 39.1289 97.9458 38.3527 97.5562 37.6751C97.1643 36.9998 96.633 36.477 95.9601 36.1046C95.2848 35.7344 94.5364 35.5482 93.7123 35.5482C92.8812 35.5482 92.128 35.7344 91.4551 36.1046C90.7799 36.477 90.2486 36.9998 89.859 37.6751C89.4671 38.3527 89.2735 39.1289 89.2735 40.0084C89.2735 40.8879 89.4671 41.6664 89.859 42.3418C90.2486 43.0193 90.7799 43.5421 91.4551 43.9123C92.128 44.2847 92.8812 44.4687 93.7123 44.4687Z" fill="#4062FF"/>
<path d="M120.92 32.2007V47.8161H117.085L109.832 39.4969V47.8161H105.28V32.2007H109.105L116.358 40.52V32.2007H120.92Z" fill="#4062FF"/>
<path d="M139.84 32.2007V47.8161H136.006L128.752 39.4969V47.8161H124.2V32.2007H128.025L135.278 40.52V32.2007H139.84Z" fill="#4062FF"/>
<path d="M156.314 44.4059V47.8161H143.12V32.2007H156.012V35.611H147.719V38.2494H155.02V41.543H147.719V44.4059H156.314Z" fill="#4062FF"/>
<path d="M167.092 48.1302C165.366 48.1302 163.817 47.787 162.446 47.0982C161.079 46.4049 160.004 45.4424 159.225 44.2084C158.444 42.97 158.054 41.57 158.054 40.0084C158.054 38.4469 158.444 37.0514 159.225 35.8174C160.004 34.5789 161.079 33.6164 162.446 32.9277C163.817 32.2344 165.366 31.8866 167.092 31.8866C168.589 31.8866 169.94 32.1424 171.144 32.6495C172.353 33.152 173.356 33.8789 174.157 34.8302L171.201 37.3789C170.136 36.1584 168.842 35.5482 167.319 35.5482C166.431 35.5482 165.638 35.7344 164.939 36.1046C164.245 36.477 163.706 36.9998 163.324 37.6751C162.939 38.3527 162.748 39.1289 162.748 40.0084C162.748 40.8879 162.939 41.6664 163.324 42.3418C163.706 43.0193 164.245 43.5421 164.939 43.9123C165.638 44.2847 166.431 44.4687 167.319 44.4687C168.842 44.4687 170.136 43.8584 171.201 42.6379L174.157 45.1866C173.356 46.1379 172.353 46.8693 171.144 47.3764C169.94 47.8789 168.589 48.1302 167.092 48.1302Z" fill="#4062FF"/>
<path d="M179.713 35.7007H174.67V32.2007H189.394V35.7007H184.369V47.8161H179.713V35.7007Z" fill="#4062FF"/>
</svg>
